<?xml version="1.0" encoding="UTF-8" standalone="no"?><!DOCTYPE svg PUBLIC "-//W3C//DTD SVG 1.1//EN" "http://www.w3.org/Graphics/SVG/1.1/DTD/svg11.dtd"><svg width="100%" height="100%" viewBox="0 0 743 239" version="1.1" xmlns="http://www.w3.org/2000/svg" xmlns:xlink="http://www.w3.org/1999/xlink" xml:space="preserve" style="fill-rule:evenodd;clip-rule:evenodd;stroke-linejoin:round;stroke-miterlimit:1.41421;"><g><g><path d="M373.618,168.733c0,2.186 -0.629,4.061 -1.883,5.625c-1.258,1.561 -2.765,2.344 -4.521,2.344l-6.406,0l0,-58.361c0,-10.935 2.573,-18.398 7.724,-22.383c5.148,-3.984 10.738,-5.977 16.768,-5.977c3.137,0 6.311,0.744 9.514,2.227c3.203,1.487 5.746,3.633 7.629,6.445c3.77,6.094 5.652,13.909 5.652,23.438c0,9.844 -1.883,17.813 -5.652,23.907c-3.768,5.939 -8.604,8.906 -14.506,8.906c-3.141,0 -5.904,-0.703 -8.289,-2.109c-2.514,-1.561 -4.521,-3.984 -6.029,-7.266l0,23.204l-0.001,0Zm21.479,-45.938c0,-6.095 -0.943,-10.782 -2.826,-14.063c-1.885,-3.281 -4.586,-4.922 -8.102,-4.922c-3.391,0 -6.029,1.641 -7.912,4.922c-1.761,2.971 -2.639,7.658 -2.639,14.063c0,5.939 0.943,10.393 2.826,13.359c1.885,3.282 4.584,4.922 8.102,4.922c3.264,0 5.84,-1.641 7.725,-4.922c1.882,-3.28 2.826,-7.734 2.826,-13.359Z" style="fill:#404041;fill-rule:nonzero;"/><path d="M410.355,153.733l0,-30.235c0,-6.095 0.722,-11.21 2.167,-15.353c1.442,-4.138 3.42,-7.459 5.934,-9.961c2.385,-2.344 5.182,-4.061 8.384,-5.156c3.203,-1.091 6.5,-1.641 9.891,-1.641l1.883,0l0,16.641l-4.333,0c-3.645,0 -6.344,1.096 -8.101,3.281c-1.761,2.19 -2.638,5.625 -2.638,10.313l0,32.11l-13.187,0l0,0.001Z" style="fill:#404041;fill-rule:nonzero;"/><path d="M446.15,148.108c-2.638,-2.812 -4.521,-6.6 -5.651,-11.368c-1.131,-4.765 -1.695,-9.727 -1.695,-14.883c0,-4.22 0.471,-8.438 1.412,-12.657c0.942,-4.219 2.417,-7.734 4.428,-10.547c3.265,-4.688 7.471,-7.459 12.622,-8.32c5.148,-0.857 9.797,-0.352 13.941,1.523c4.771,2.344 8.289,6.409 10.55,12.188c2.134,5.156 3.203,11.174 3.203,18.048c0,5.002 -0.441,9.298 -1.319,12.891c-0.88,3.596 -2.01,6.643 -3.391,9.141c-3.015,5.156 -6.847,8.359 -11.492,9.609c-4.145,1.406 -8.321,1.523 -12.528,0.352c-4.209,-1.172 -7.569,-3.164 -10.08,-5.977Zm9.043,-41.251c-2.638,3.597 -3.833,8.947 -3.579,16.056c0.25,7.111 1.318,12.07 3.202,14.883c0.754,1.252 2.072,2.307 3.956,3.164c1.885,0.859 3.798,0.938 5.746,0.234c1.946,-0.703 3.674,-2.461 5.182,-5.274c1.507,-2.812 2.322,-7.343 2.448,-13.594c0,-5.626 -0.724,-9.845 -2.166,-12.657c-1.445,-2.812 -3.108,-4.606 -4.992,-5.391c-1.884,-0.78 -3.769,-0.82 -5.652,-0.117c-1.883,0.703 -3.268,1.605 -4.145,2.696Z" style="fill:#404041;fill-rule:nonzero;"/><path d="M520.189,149.983l0,-3.984c-2.261,4.375 -5.308,7.111 -9.137,8.203c-3.833,1.092 -7.63,0.703 -11.398,-1.172c-3.768,-1.875 -7.003,-5.352 -9.702,-10.43c-2.702,-5.076 -4.05,-11.756 -4.05,-20.04c0,-9.687 1.789,-17.539 5.369,-23.556c3.579,-6.013 9.325,-9.023 17.237,-9.023c6.029,0 11.616,2.033 16.768,6.094c5.148,4.065 7.724,11.565 7.724,22.5l0,33.048c0,10.936 -2.575,18.398 -7.724,22.383c-5.151,3.984 -10.738,5.977 -16.768,5.977c-11.557,0 -18.716,-6.721 -21.477,-20.156l13.753,0c1.004,2.186 2.543,3.867 4.615,5.039c2.072,1.172 4.145,1.482 6.217,0.938c2.072,-0.549 3.957,-2.072 5.652,-4.57c1.697,-2.503 2.669,-6.253 2.921,-11.251Zm-21.476,-26.953c0,10.781 2.511,16.758 7.535,17.93c5.022,1.172 8.729,-0.271 11.115,-4.336c1.131,-1.718 1.946,-4.413 2.449,-8.086c0.501,-3.67 0.533,-7.303 0.095,-10.899c-0.441,-3.592 -1.479,-6.797 -3.108,-9.609c-1.634,-2.812 -4.021,-4.219 -7.159,-4.219c-4.271,0 -7.159,1.956 -8.666,5.859c-1.508,3.908 -2.261,8.361 -2.261,13.36Z" style="fill:#404041;fill-rule:nonzero;"/><path d="M535.261,153.733l0,-30.235c0,-6.095 0.722,-11.21 2.167,-15.353c1.442,-4.138 3.42,-7.459 5.934,-9.961c2.385,-2.344 5.182,-4.061 8.384,-5.156c3.203,-1.091 6.5,-1.641 9.891,-1.641l1.883,0l0,16.641l-4.333,0c-3.645,0 -6.344,1.096 -8.101,3.281c-1.761,2.19 -2.638,5.625 -2.638,10.313l0,32.11l-13.187,0l0,0.001Z" style="fill:#404041;fill-rule:nonzero;"/><path d="M596.866,151.155c-2.638,1.721 -5.435,2.771 -8.384,3.164c-2.953,0.389 -5.558,0.586 -7.818,0.586c-4.521,0 -8.478,-1.523 -11.869,-4.57c-3.391,-3.047 -5.086,-8.086 -5.086,-15.118c0,-6.562 1.536,-11.25 4.615,-14.063c3.076,-2.812 7,-4.688 11.774,-5.625c0.627,0 1.381,-0.117 2.261,-0.352c0.877,-0.234 1.884,-0.428 3.015,-0.586c5.525,-0.938 8.289,-2.966 8.289,-6.094c0,-2.344 -0.975,-3.867 -2.92,-4.57c-1.949,-0.703 -3.738,-1.055 -5.369,-1.055c-1.761,0 -3.329,0.315 -4.71,0.938c-1.384,0.627 -2.388,1.798 -3.015,3.516l-12.622,0c0.5,-4.841 2.261,-8.826 5.275,-11.953c3.391,-3.592 8.224,-5.391 14.506,-5.391c7.032,0 12.308,1.487 15.825,4.453c3.642,3.127 5.463,7.5 5.463,13.125l0,21.329c0,6.251 -0.912,11.133 -2.731,14.649c-1.822,3.516 -3.988,6.057 -6.499,7.617Zm-3.014,-28.828c-1.761,1.095 -4.21,2.109 -7.348,3.047l-4.333,1.172c-2.261,0.783 -3.895,1.798 -4.898,3.047c-0.88,1.721 -1.318,3.438 -1.318,5.156c0,2.344 0.565,4.219 1.695,5.625c1.131,1.252 2.762,1.875 4.898,1.875c3.515,0 6.278,-1.25 8.289,-3.75c2.008,-2.499 3.015,-5.937 3.015,-10.313l0,-5.859l0,0Z" style="fill:#404041;fill-rule:nonzero;"/><path d="M651.688,153.733l-12.999,0l0,-36.564l0,-3.281c0,-3.75 -0.912,-6.481 -2.731,-8.203c-1.822,-1.717 -3.862,-2.578 -6.123,-2.578c-2.261,0 -4.271,0.861 -6.028,2.578c-1.761,1.722 -2.638,4.453 -2.638,8.203l0,39.845l-13.188,0l0,-36.564c0,-10.623 2.229,-17.732 6.688,-21.328c4.457,-3.592 9.388,-5.544 14.789,-5.859c2.888,0 5.714,0.392 8.478,1.172c2.762,0.784 5.275,2.344 7.536,4.688c1.884,-2.029 4.112,-3.475 6.688,-4.336c2.572,-0.857 5.242,-1.366 8.006,-1.523c5.525,0 10.612,1.798 15.261,5.391c4.645,3.596 6.97,10.862 6.97,21.797l0,36.564l-6.594,0c-1.884,0 -3.423,-0.74 -4.615,-2.227c-1.195,-1.484 -1.79,-3.398 -1.79,-5.742l0,-31.876c0,-3.75 -0.912,-6.481 -2.731,-8.203c-1.822,-1.717 -3.862,-2.578 -6.123,-2.578c-2.261,0 -4.304,0.861 -6.122,2.578c-1.822,1.722 -2.732,4.453 -2.732,8.203l0,39.843l-0.002,0Z" style="fill:#404041;fill-rule:nonzero;"/></g><g><path d="M96.042,133.361l10.08,0c-1.48,7.609 -4.303,13.41 -8.467,17.394c-4.168,4.17 -9.41,6.25 -15.726,6.25c-7.661,0 -13.643,-3.35 -17.943,-10.057c-4.303,-6.521 -6.451,-15.851 -6.451,-27.992c0,-11.593 2.082,-20.655 6.25,-27.178c4.3,-6.701 10.282,-10.056 17.943,-10.056c8.064,0 14.314,3.261 18.75,9.784c4.3,6.705 6.452,16.035 6.452,27.993l0,2.99c0,0.908 -0.069,1.541 -0.202,1.902l-34.879,0c0.132,5.618 1.141,9.783 3.024,12.501c1.745,2.901 4.366,4.348 7.862,4.348c2.284,0 4.234,-0.633 5.847,-1.902c0.403,-0.178 0.772,-0.496 1.109,-0.951c0.334,-0.449 0.706,-0.951 1.109,-1.495c0.132,-0.543 0.636,-1.265 1.512,-2.174c0.873,-0.903 2.117,-1.357 3.73,-1.357Zm-24.193,-21.199l20.564,0c-0.271,-4.892 -1.209,-8.514 -2.822,-10.871c-1.749,-2.535 -4.234,-3.805 -7.459,-3.805c-2.958,0 -5.377,1.27 -7.258,3.805c-1.884,2.539 -2.893,6.162 -3.025,10.871Z" style="fill:#6fa062;fill-rule:nonzero;"/><path d="M142.211,155.646l-14.314,0l-18.75,-72.292l14.919,0l10.686,50.822l9.476,-44.299c1.074,-4.349 3.226,-6.523 6.451,-6.523l10.484,0l-18.952,72.292Z" style="fill:#6fa062;fill-rule:nonzero;"/><path d="M200.879,133.361l10.08,0c-1.48,7.609 -4.303,13.41 -8.467,17.394c-4.168,4.17 -9.41,6.25 -15.726,6.25c-7.661,0 -13.643,-3.35 -17.943,-10.057c-4.303,-6.521 -6.451,-15.851 -6.451,-27.992c0,-11.593 2.082,-20.655 6.25,-27.178c4.3,-6.701 10.282,-10.056 17.943,-10.056c8.064,0 14.314,3.261 18.75,9.784c4.3,6.705 6.452,16.035 6.452,27.993l0,2.99c0,0.908 -0.069,1.541 -0.202,1.902l-34.878,0c0.132,5.618 1.141,9.783 3.024,12.501c1.745,2.901 4.366,4.348 7.862,4.348c2.284,0 4.234,-0.633 5.847,-1.902c0.403,-0.178 0.772,-0.496 1.109,-0.951c0.334,-0.449 0.706,-0.951 1.109,-1.495c0.132,-0.543 0.636,-1.265 1.512,-2.174c0.872,-0.903 2.116,-1.357 3.729,-1.357Zm-24.193,-21.199l20.564,0c-0.271,-4.892 -1.209,-8.514 -2.822,-10.871c-1.749,-2.535 -4.234,-3.805 -7.459,-3.805c-2.958,0 -5.377,1.27 -7.258,3.805c-1.884,2.539 -2.893,6.162 -3.025,10.871Z" style="fill:#6fa062;fill-rule:nonzero;"/><path d="M213.984,155.646l0,-35.058c0,-7.066 0.772,-12.999 2.318,-17.802c1.544,-4.799 3.661,-8.65 6.351,-11.55c2.552,-2.718 5.544,-4.709 8.972,-5.979c3.428,-1.265 6.956,-1.902 10.584,-1.902l2.016,0l0,19.296l-4.637,0c-3.9,0 -6.789,1.27 -8.669,3.805c-1.884,2.539 -2.822,6.522 -2.822,11.958l0,37.233l-14.113,0l0,-0.001Z" style="fill:#6fa062;fill-rule:nonzero;"/><path d="M282.934,133.361l10.08,0c-1.48,7.609 -4.303,13.41 -8.467,17.394c-4.168,4.17 -9.41,6.25 -15.726,6.25c-7.661,0 -13.643,-3.35 -17.943,-10.057c-4.303,-6.521 -6.451,-15.851 -6.451,-27.992c0,-11.593 2.082,-20.655 6.25,-27.178c4.3,-6.701 10.282,-10.056 17.943,-10.056c8.064,0 14.314,3.261 18.75,9.784c4.3,6.705 6.452,16.035 6.452,27.993l0,2.99c0,0.908 -0.069,1.541 -0.202,1.902l-34.878,0c0.132,5.618 1.141,9.783 3.024,12.501c1.745,2.901 4.366,4.348 7.862,4.348c2.284,0 4.234,-0.633 5.847,-1.902c0.403,-0.178 0.772,-0.496 1.109,-0.951c0.334,-0.449 0.706,-0.951 1.109,-1.495c0.132,-0.543 0.636,-1.265 1.512,-2.174c0.872,-0.903 2.116,-1.357 3.729,-1.357Zm-24.193,-21.199l20.564,0c-0.271,-4.892 -1.209,-8.514 -2.822,-10.871c-1.749,-2.535 -4.234,-3.805 -7.459,-3.805c-2.958,0 -5.377,1.27 -7.258,3.805c-1.885,2.539 -2.893,6.162 -3.025,10.871Z" style="fill:#6fa062;fill-rule:nonzero;"/><path d="M319.829,155.646c-4.436,0.361 -9.243,0.271 -14.415,-0.271c-5.176,-0.543 -7.762,-4.98 -7.762,-13.316l0,-79.904l7.258,0c1.745,0 3.292,0.909 4.637,2.718c1.342,1.813 2.016,3.987 2.016,6.522l0,12.23l8.266,0l0,3.805c0,2.718 -0.674,4.939 -2.016,6.659c-1.345,1.724 -2.958,2.582 -4.839,2.582l-1.411,0l0,40.223c0,3.083 1.342,4.62 4.032,4.62l4.234,0l0,14.132Z" style="fill:#6fa062;fill-rule:nonzero;"/><path d="M344.828,155.646c-4.436,0.361 -9.243,0.271 -14.415,-0.271c-5.176,-0.543 -7.762,-4.98 -7.762,-13.316l0,-79.904l7.258,0c1.745,0 3.292,0.909 4.637,2.718c1.342,1.813 2.016,3.987 2.016,6.522l0,12.23l8.266,0l0,3.805c0,2.718 -0.674,4.939 -2.016,6.659c-1.345,1.724 -2.958,2.582 -4.839,2.582l-1.411,0l0,40.223c0,3.083 1.342,4.62 4.032,4.62l4.234,0l0,14.132Z" style="fill:#6fa062;fill-rule:nonzero;"/></g><g><path d="M117.564,165.306c0,-1.652 -0.035,-1.982 -0.835,-2.07l-0.331,-0.035c-0.174,-0.086 -0.174,-0.592 0.035,-0.607c1.461,-0.088 2.818,-0.158 4.662,-0.158c1.426,0 2.853,0.141 4.053,0.574c2.279,0.818 3.531,2.871 3.531,5.045c0,2.332 -1.113,4.209 -3.114,5.201c-1.183,0.592 -2.609,0.818 -4.401,0.818c-0.818,0 -1.688,-0.105 -2.314,-0.105c-0.835,0 -1.722,0.018 -2.713,0.053c-0.139,-0.104 -0.139,-0.521 0,-0.609l0.539,-0.086c0.783,-0.123 0.887,-0.262 0.887,-1.861l0,-6.16l0.001,0Zm2.488,5.513c0,0.957 0.035,1.584 0.348,1.949c0.313,0.348 0.818,0.504 1.444,0.504c3.009,0 4.036,-2.68 4.036,-5.045c0,-3.131 -1.652,-4.992 -4.801,-4.992c-0.469,0 -0.8,0.088 -0.904,0.227c-0.104,0.139 -0.122,0.469 -0.122,1.008l0,6.349l-0.001,0Z" style="fill:#231f20;fill-rule:nonzero;"/><path d="M137.846,171.429c0,1.635 0.104,1.756 0.904,1.896l0.487,0.086c0.139,0.105 0.122,0.506 -0.018,0.609c-0.939,-0.035 -1.792,-0.053 -2.609,-0.053c-0.835,0 -1.705,0.018 -2.644,0.053c-0.139,-0.104 -0.139,-0.504 0,-0.609l0.487,-0.086c0.8,-0.141 0.904,-0.262 0.904,-1.896l0,-6.402c0,-1.635 -0.104,-1.756 -0.904,-1.895l-0.487,-0.088c-0.139,-0.104 -0.139,-0.504 0,-0.609c0.939,0.035 1.809,0.053 2.644,0.053c0.818,0 1.688,-0.018 2.627,-0.053c0.139,0.105 0.139,0.506 0,0.609l-0.487,0.088c-0.8,0.139 -0.904,0.26 -0.904,1.895l0,6.402Z" style="fill:#231f20;fill-rule:nonzero;"/><path d="M155.361,172.003c0,0.73 0.035,1.078 0.366,1.148c0.069,0.068 0.052,0.365 -0.052,0.416c-0.296,0.053 -0.748,0.105 -1.218,0.262c-0.609,0.191 -2.105,0.418 -3.079,0.418c-1.183,0 -2.192,-0.123 -3.427,-0.609c-2.035,-0.818 -3.427,-2.748 -3.427,-5.254c0,-2.174 0.974,-4.088 3.062,-5.252c1.183,-0.645 2.592,-0.922 4.07,-0.922c1.931,0 2.888,0.416 3.444,0.416c0.052,0.523 0.07,1.74 0.244,2.801c-0.07,0.191 -0.54,0.209 -0.661,0.035c-0.557,-1.635 -1.652,-2.453 -3.271,-2.453c-2.766,0 -4.105,2.297 -4.105,5.045c0,2.488 0.853,3.967 1.983,4.732c0.835,0.557 1.74,0.66 2.383,0.66c0.992,0 1.2,-0.191 1.2,-1.322l0,-1.096c0,-0.939 -0.104,-1.043 -0.939,-1.166l-0.765,-0.104c-0.191,-0.105 -0.191,-0.504 0,-0.609c1.235,0.035 2.087,0.053 2.939,0.053c0.835,0 1.688,-0.018 2.279,-0.053c0.139,0.105 0.139,0.504 0,0.609l-0.4,0.07c-0.522,0.086 -0.626,0.26 -0.626,1.199l0,0.976Z" style="fill:#231f20;fill-rule:nonzero;"/><path d="M165.066,171.429c0,1.635 0.104,1.756 0.904,1.896l0.487,0.086c0.139,0.105 0.122,0.506 -0.018,0.609c-0.939,-0.035 -1.792,-0.053 -2.609,-0.053c-0.835,0 -1.705,0.018 -2.644,0.053c-0.139,-0.104 -0.139,-0.504 0,-0.609l0.487,-0.086c0.8,-0.141 0.904,-0.262 0.904,-1.896l0,-6.402c0,-1.635 -0.104,-1.756 -0.904,-1.895l-0.487,-0.088c-0.139,-0.104 -0.139,-0.504 0,-0.609c0.939,0.035 1.809,0.053 2.644,0.053c0.818,0 1.688,-0.018 2.627,-0.053c0.139,0.105 0.139,0.506 0,0.609l-0.487,0.088c-0.8,0.139 -0.904,0.26 -0.904,1.895l0,6.402Z" style="fill:#231f20;fill-rule:nonzero;"/><path d="M175.484,163.792c0,-0.418 0,-0.504 -0.417,-0.504l-1.078,0c-1.27,0 -1.635,0.695 -2.157,1.965c-0.208,0.105 -0.539,0.07 -0.644,-0.156c0.365,-1.199 0.452,-2.279 0.574,-2.957c0.069,-0.053 0.156,-0.088 0.243,-0.088c0.087,0 0.174,0.018 0.244,0.07c0.087,0.295 0.139,0.365 1.461,0.365l6.471,0c1.148,0 1.409,-0.018 1.565,-0.383c0.07,-0.035 0.122,-0.053 0.227,-0.053c0.104,0 0.226,0.07 0.261,0.123c-0.174,0.592 -0.296,2 -0.261,2.992c-0.087,0.156 -0.557,0.191 -0.644,0.051c-0.295,-1.113 -0.539,-1.93 -1.844,-1.93l-1.043,0c-0.417,0 -0.47,0.053 -0.47,0.504l0,7.672c0,1.617 0.104,1.756 0.887,1.861l0.696,0.086c0.122,0.105 0.122,0.506 0,0.609c-1.131,-0.035 -2,-0.053 -2.783,-0.053c-0.835,0 -1.74,0.018 -2.958,0.053c-0.139,-0.104 -0.139,-0.504 0,-0.609l0.783,-0.086c0.783,-0.088 0.887,-0.244 0.887,-1.861l0,-7.671Z" style="fill:#231f20;fill-rule:nonzero;"/><path d="M188.495,170.036c-0.417,0 -0.47,0.018 -0.574,0.35l-0.679,2.018c-0.104,0.348 -0.122,0.486 -0.122,0.625c0,0.105 0.226,0.209 0.713,0.297l0.522,0.086c0.104,0.123 0.139,0.521 -0.035,0.609c-0.609,-0.035 -1.235,-0.035 -1.966,-0.053c-0.591,0 -0.991,0.053 -1.792,0.053c-0.191,-0.104 -0.174,-0.471 -0.052,-0.609l0.47,-0.051c0.417,-0.053 0.765,-0.191 1.061,-0.871c0.296,-0.695 0.626,-1.531 1.096,-2.783l1.583,-4.244c0.4,-1.096 0.696,-1.705 0.644,-2.209c0.835,-0.191 1.479,-1.043 1.514,-1.043c0.226,0 0.331,0.086 0.4,0.348c0.139,0.504 0.348,1.148 0.783,2.383l2.366,6.818c0.365,1.045 0.522,1.443 1.166,1.549l0.661,0.104c0.104,0.088 0.139,0.506 -0.018,0.609c-0.835,-0.035 -1.774,-0.053 -2.679,-0.053c-0.87,0 -1.548,0.018 -2.348,0.053c-0.191,-0.104 -0.226,-0.471 -0.035,-0.609l0.557,-0.086c0.4,-0.07 0.47,-0.191 0.47,-0.297c0,-0.121 -0.122,-0.539 -0.331,-1.182l-0.47,-1.496c-0.087,-0.279 -0.226,-0.314 -0.835,-0.314l-2.07,0l0,-0.002Zm1.983,-0.922c0.4,0 0.487,-0.051 0.348,-0.504l-0.452,-1.408c-0.244,-0.748 -0.557,-1.688 -0.713,-2.053c-0.139,0.4 -0.487,1.34 -0.748,2.139l-0.435,1.305c-0.157,0.471 -0.07,0.521 0.365,0.521l1.635,0Z" style="fill:#231f20;fill-rule:nonzero;"/><path d="M204.253,171.081c0,0.816 0.069,1.373 0.295,1.652c0.226,0.295 0.54,0.436 1.809,0.436c1.583,0 2.07,-0.053 3.096,-2.07c0.14,-0.174 0.54,-0.105 0.661,0.104c-0.087,0.904 -0.504,2.348 -0.748,2.818c-0.922,-0.035 -2.592,-0.053 -4.018,-0.053l-2.331,0c-0.8,0 -1.67,0.018 -2.749,0.053c-0.156,-0.104 -0.191,-0.504 -0.052,-0.609l0.661,-0.086c0.783,-0.105 0.887,-0.244 0.887,-1.861l0,-6.471c0,-1.619 -0.104,-1.775 -0.887,-1.879l-0.504,-0.07c-0.174,-0.104 -0.174,-0.504 0.035,-0.609c0.904,0.035 1.774,0.053 2.609,0.053c0.835,0 1.705,-0.018 2.575,-0.053c0.139,0.105 0.139,0.506 0,0.609l-0.452,0.07c-0.783,0.121 -0.887,0.26 -0.887,1.879l0,6.087Z" style="fill:#231f20;fill-rule:nonzero;"/><path d="M225.943,163.792c0,-0.418 0,-0.504 -0.417,-0.504l-1.078,0c-1.27,0 -1.635,0.695 -2.157,1.965c-0.208,0.105 -0.539,0.07 -0.644,-0.156c0.365,-1.199 0.452,-2.279 0.574,-2.957c0.069,-0.053 0.156,-0.088 0.243,-0.088c0.087,0 0.174,0.018 0.244,0.07c0.087,0.295 0.139,0.365 1.461,0.365l6.471,0c1.148,0 1.409,-0.018 1.565,-0.383c0.07,-0.035 0.122,-0.053 0.227,-0.053c0.104,0 0.226,0.07 0.261,0.123c-0.174,0.592 -0.296,2 -0.261,2.992c-0.087,0.156 -0.557,0.191 -0.644,0.051c-0.295,-1.113 -0.539,-1.93 -1.844,-1.93l-1.044,0c-0.417,0 -0.47,0.053 -0.47,0.504l0,7.672c0,1.617 0.104,1.756 0.887,1.861l0.696,0.086c0.122,0.105 0.122,0.506 0,0.609c-1.131,-0.035 -2,-0.053 -2.783,-0.053c-0.835,0 -1.74,0.018 -2.958,0.053c-0.139,-0.104 -0.139,-0.504 0,-0.609l0.783,-0.086c0.783,-0.088 0.887,-0.244 0.887,-1.861l0,-7.671l0.001,0Z" style="fill:#231f20;fill-rule:nonzero;"/><path d="M249.112,168.175c0,3.793 -2.54,6.072 -6.28,6.072c-3.497,0 -6.036,-2.297 -6.036,-5.932c0,-3.445 2.575,-6.105 6.21,-6.105c3.619,0 6.106,2.434 6.106,5.965Zm-6.245,-5.166c-2.14,0 -3.288,2.002 -3.288,4.906c0,2.121 0.748,5.531 3.583,5.531c2.279,0 3.166,-2.227 3.166,-5.045c0.001,-2.974 -1.304,-5.392 -3.461,-5.392Z" style="fill:#231f20;fill-rule:nonzero;"/><path d="M266.818,168.175c0,3.793 -2.54,6.072 -6.279,6.072c-3.497,0 -6.036,-2.297 -6.036,-5.932c0,-3.445 2.574,-6.105 6.21,-6.105c3.618,0 6.105,2.434 6.105,5.965Zm-6.244,-5.166c-2.14,0 -3.288,2.002 -3.288,4.906c0,2.121 0.748,5.531 3.583,5.531c2.279,0 3.166,-2.227 3.166,-5.045c0,-2.974 -1.304,-5.392 -3.461,-5.392Z" style="fill:#231f20;fill-rule:nonzero;"/><path d="M275.984,171.081c0,0.816 0.069,1.373 0.295,1.652c0.226,0.295 0.54,0.436 1.809,0.436c1.583,0 2.07,-0.053 3.097,-2.07c0.139,-0.174 0.539,-0.105 0.661,0.104c-0.087,0.904 -0.504,2.348 -0.748,2.818c-0.922,-0.035 -2.592,-0.053 -4.018,-0.053l-2.331,0c-0.8,0 -1.67,0.018 -2.748,0.053c-0.157,-0.104 -0.191,-0.504 -0.052,-0.609l0.661,-0.086c0.783,-0.105 0.887,-0.244 0.887,-1.861l0,-6.471c0,-1.619 -0.104,-1.775 -0.887,-1.879l-0.504,-0.07c-0.174,-0.104 -0.174,-0.504 0.035,-0.609c0.905,0.035 1.774,0.053 2.609,0.053c0.835,0 1.705,-0.018 2.575,-0.053c0.139,0.105 0.139,0.506 0,0.609l-0.453,0.07c-0.783,0.121 -0.887,0.26 -0.887,1.879l0,6.087l-0.001,0Z" style="fill:#231f20;fill-rule:nonzero;"/><path d="M289.604,174.247c-1.601,0 -2.592,-0.453 -2.958,-0.662c-0.331,-0.383 -0.557,-1.635 -0.557,-2.818c0.122,-0.225 0.522,-0.242 0.661,-0.051c0.348,1.131 1.513,2.73 2.992,2.73c1.287,0 1.878,-0.887 1.878,-1.756c0,-1.41 -1.322,-2.244 -2.366,-2.768c-1.252,-0.625 -2.626,-1.67 -2.626,-3.391c-0.018,-1.967 1.513,-3.322 4.036,-3.322c0.574,0 1.287,0.068 1.983,0.277c0.226,0.07 0.383,0.105 0.591,0.139c0.139,0.383 0.313,1.322 0.313,2.488c-0.087,0.209 -0.521,0.227 -0.678,0.053c-0.295,-0.889 -1.043,-2.158 -2.296,-2.158c-1.148,0 -1.774,0.748 -1.774,1.619c0,0.799 0.713,1.529 1.583,1.982l1.148,0.609c1.079,0.574 2.453,1.582 2.453,3.496c0,2.14 -1.757,3.533 -4.383,3.533Z" style="fill:#231f20;fill-rule:nonzero;"/><path d="M311.137,167.149c0,0.469 0.017,0.521 0.487,0.521l1.339,0c0.922,0 1.113,-0.121 1.287,-0.975l0.087,-0.416c0.122,-0.156 0.557,-0.141 0.661,0.018c-0.035,0.557 -0.052,1.199 -0.052,1.861c0,0.643 0.017,1.287 0.052,1.809c-0.104,0.156 -0.539,0.174 -0.661,0.018l-0.087,-0.418c-0.174,-0.836 -0.365,-0.975 -1.287,-0.975l-1.339,0c-0.47,0 -0.487,0.053 -0.487,0.521l0,2.35c0,1.617 0.104,1.756 0.887,1.861l0.644,0.086c0.122,0.105 0.122,0.506 0,0.609c-1.079,-0.035 -1.931,-0.053 -2.766,-0.053c-0.8,0 -1.67,0.018 -2.713,0.053c-0.139,-0.104 -0.139,-0.504 0,-0.609l0.574,-0.086c0.783,-0.123 0.887,-0.244 0.887,-1.861l0,-6.471c0,-1.619 -0.104,-1.775 -0.887,-1.896l-0.348,-0.053c-0.157,-0.104 -0.157,-0.539 0.035,-0.609c0.748,0.035 1.618,0.053 2.453,0.053l3.653,0c1.113,0 2.104,-0.018 2.348,-0.053c0,0.297 0,1.549 0.035,2.715c-0.069,0.191 -0.452,0.209 -0.661,0.068c-0.191,-0.713 -0.33,-1.131 -0.504,-1.355c-0.295,-0.365 -0.817,-0.574 -1.705,-0.574l-1.357,0c-0.574,0 -0.574,0.035 -0.574,0.713l0,3.148l-0.001,0Z" style="fill:#231f20;fill-rule:nonzero;"/><path d="M333.21,168.175c0,3.793 -2.54,6.072 -6.279,6.072c-3.497,0 -6.036,-2.297 -6.036,-5.932c0,-3.445 2.574,-6.105 6.21,-6.105c3.618,0 6.105,2.434 6.105,5.965Zm-6.245,-5.166c-2.14,0 -3.288,2.002 -3.288,4.906c0,2.121 0.748,5.531 3.583,5.531c2.279,0 3.166,-2.227 3.166,-5.045c0.001,-2.974 -1.303,-5.392 -3.461,-5.392Z" style="fill:#231f20;fill-rule:nonzero;"/><path d="M339.888,165.306c0,-1.74 -0.035,-1.932 -0.765,-2.035l-0.47,-0.07c-0.174,-0.086 -0.174,-0.521 0.035,-0.607c1.305,-0.088 2.662,-0.158 4.314,-0.158c1.479,0 2.749,0.227 3.41,0.627c1.009,0.592 1.531,1.461 1.531,2.574c0,1.549 -1.044,2.209 -1.844,2.609c-0.174,0.088 -0.174,0.191 -0.087,0.383c1.148,2.33 1.861,3.635 2.696,4.35c0.452,0.365 0.905,0.469 1.166,0.486c0.157,0.086 0.157,0.348 0.069,0.453c-0.278,0.121 -0.835,0.156 -1.374,0.156c-1.6,0 -2.609,-0.574 -3.375,-1.826c-0.557,-0.924 -0.957,-1.775 -1.357,-2.697c-0.208,-0.469 -0.487,-0.609 -0.922,-0.609c-0.609,0 -0.644,0.035 -0.644,0.383l0,2.141c0,1.6 0.104,1.721 0.887,1.861l0.47,0.086c0.122,0.088 0.122,0.506 0,0.609c-0.922,-0.035 -1.722,-0.053 -2.557,-0.053c-0.87,0 -1.635,0.018 -2.54,0.053c-0.139,-0.104 -0.139,-0.521 0,-0.609l0.47,-0.086c0.783,-0.141 0.887,-0.262 0.887,-1.861l0,-6.16l0,0Zm2.383,2.209c0,0.609 0.052,0.66 1.079,0.66c0.626,0 0.991,-0.156 1.322,-0.486c0.296,-0.295 0.626,-0.852 0.626,-1.879c0,-1.564 -0.922,-2.574 -2.279,-2.574c-0.713,0 -0.748,0.053 -0.748,0.887l0,3.392Z" style="fill:#231f20;fill-rule:nonzero;"/><path d="M398.243,174.247c-1.601,0 -2.592,-0.453 -2.957,-0.662c-0.331,-0.383 -0.557,-1.635 -0.557,-2.818c0.121,-0.225 0.521,-0.242 0.661,-0.051c0.348,1.131 1.513,2.73 2.991,2.73c1.287,0 1.879,-0.887 1.879,-1.756c0,-1.41 -1.322,-2.244 -2.365,-2.768c-1.253,-0.625 -2.627,-1.67 -2.627,-3.391c-0.018,-1.967 1.514,-3.322 4.035,-3.322c0.574,0 1.287,0.068 1.983,0.277c0.227,0.07 0.383,0.105 0.592,0.139c0.139,0.383 0.312,1.322 0.312,2.488c-0.087,0.209 -0.521,0.227 -0.678,0.053c-0.296,-0.889 -1.044,-2.158 -2.297,-2.158c-1.147,0 -1.774,0.748 -1.774,1.619c0,0.799 0.714,1.529 1.583,1.982l1.148,0.609c1.078,0.574 2.453,1.582 2.453,3.496c0.002,2.14 -1.755,3.533 -4.382,3.533Z" style="fill:#231f20;fill-rule:nonzero;"/><path d="M420.143,168.175c0,3.793 -2.54,6.072 -6.28,6.072c-3.496,0 -6.035,-2.297 -6.035,-5.932c0,-3.445 2.574,-6.105 6.21,-6.105c3.617,0 6.105,2.434 6.105,5.965Zm-6.246,-5.166c-2.14,0 -3.287,2.002 -3.287,4.906c0,2.121 0.747,5.531 3.583,5.531c2.278,0 3.166,-2.227 3.166,-5.045c0,-2.974 -1.304,-5.392 -3.462,-5.392Z" style="fill:#231f20;fill-rule:nonzero;"/><path d="M436.04,162.661c0,0.312 0.053,1.705 0.209,2.715c-0.069,0.207 -0.539,0.277 -0.661,0.121c-0.47,-1.617 -1.583,-2.488 -3.271,-2.488c-1.931,0 -4,1.652 -4,5.115c0,3.461 2,5.322 4.087,5.322c2.105,0 3.079,-1.514 3.549,-2.695c0.14,-0.141 0.557,-0.088 0.661,0.121c-0.122,1.287 -0.417,2.33 -0.661,2.73c-0.939,0.262 -2.174,0.645 -3.531,0.645c-1.704,0 -3.444,-0.4 -4.679,-1.322c-1.253,-0.957 -2.209,-2.4 -2.209,-4.559c0,-2.121 0.904,-3.617 2.104,-4.609c1.235,-1.025 3.009,-1.547 4.818,-1.547c1.775,0 3.063,0.416 3.584,0.451Z" style="fill:#231f20;fill-rule:nonzero;"/><path d="M445.293,171.429c0,1.635 0.104,1.756 0.904,1.896l0.487,0.086c0.139,0.105 0.121,0.506 -0.018,0.609c-0.939,-0.035 -1.792,-0.053 -2.609,-0.053c-0.835,0 -1.705,0.018 -2.644,0.053c-0.14,-0.104 -0.14,-0.504 0,-0.609l0.486,-0.086c0.801,-0.141 0.905,-0.262 0.905,-1.896l0,-6.402c0,-1.635 -0.104,-1.756 -0.905,-1.895l-0.486,-0.088c-0.14,-0.104 -0.14,-0.504 0,-0.609c0.938,0.035 1.809,0.053 2.644,0.053c0.817,0 1.688,-0.018 2.627,-0.053c0.139,0.105 0.139,0.506 0,0.609l-0.487,0.088c-0.8,0.139 -0.904,0.26 -0.904,1.895l0,6.402Z" style="fill:#231f20;fill-rule:nonzero;"/><path d="M454.842,170.036c-0.418,0 -0.47,0.018 -0.574,0.35l-0.679,2.018c-0.104,0.348 -0.122,0.486 -0.122,0.625c0,0.105 0.227,0.209 0.714,0.297l0.521,0.086c0.104,0.123 0.14,0.521 -0.035,0.609c-0.608,-0.035 -1.234,-0.035 -1.965,-0.053c-0.592,0 -0.992,0.053 -1.792,0.053c-0.191,-0.104 -0.174,-0.471 -0.052,-0.609l0.469,-0.051c0.418,-0.053 0.766,-0.191 1.062,-0.871c0.296,-0.695 0.626,-1.531 1.096,-2.783l1.583,-4.244c0.4,-1.096 0.696,-1.705 0.644,-2.209c0.835,-0.191 1.479,-1.043 1.514,-1.043c0.226,0 0.33,0.086 0.4,0.348c0.139,0.504 0.348,1.148 0.782,2.383l2.366,6.818c0.365,1.045 0.521,1.443 1.165,1.549l0.661,0.104c0.104,0.088 0.139,0.506 -0.018,0.609c-0.835,-0.035 -1.774,-0.053 -2.679,-0.053c-0.87,0 -1.548,0.018 -2.349,0.053c-0.191,-0.104 -0.226,-0.471 -0.034,-0.609l0.557,-0.086c0.399,-0.07 0.47,-0.191 0.47,-0.297c0,-0.121 -0.122,-0.539 -0.331,-1.182l-0.47,-1.496c-0.087,-0.279 -0.226,-0.314 -0.835,-0.314l-2.069,0l0,-0.002Zm1.982,-0.922c0.4,0 0.487,-0.051 0.348,-0.504l-0.452,-1.408c-0.243,-0.748 -0.557,-1.688 -0.713,-2.053c-0.139,0.4 -0.487,1.34 -0.748,2.139l-0.435,1.305c-0.157,0.471 -0.069,0.521 0.365,0.521l1.635,0Z" style="fill:#231f20;fill-rule:nonzero;"/><path d="M470.601,171.081c0,0.816 0.069,1.373 0.296,1.652c0.226,0.295 0.539,0.436 1.809,0.436c1.583,0 2.07,-0.053 3.097,-2.07c0.139,-0.174 0.539,-0.105 0.661,0.104c-0.087,0.904 -0.505,2.348 -0.748,2.818c-0.922,-0.035 -2.592,-0.053 -4.019,-0.053l-2.331,0c-0.8,0 -1.67,0.018 -2.748,0.053c-0.157,-0.104 -0.191,-0.504 -0.053,-0.609l0.661,-0.086c0.783,-0.105 0.888,-0.244 0.888,-1.861l0,-6.471c0,-1.619 -0.104,-1.775 -0.888,-1.879l-0.504,-0.07c-0.174,-0.104 -0.174,-0.504 0.034,-0.609c0.905,0.035 1.774,0.053 2.609,0.053c0.835,0 1.705,-0.018 2.574,-0.053c0.14,0.105 0.14,0.506 0,0.609l-0.452,0.07c-0.782,0.121 -0.887,0.26 -0.887,1.879l0,6.087l0.001,0Z" style="fill:#231f20;fill-rule:nonzero;"/><path d="M541.998,171.429c0,1.635 0.104,1.756 0.904,1.896l0.487,0.086c0.139,0.105 0.121,0.506 -0.018,0.609c-0.939,-0.035 -1.792,-0.053 -2.609,-0.053c-0.835,0 -1.705,0.018 -2.644,0.053c-0.14,-0.104 -0.14,-0.504 0,-0.609l0.486,-0.086c0.801,-0.141 0.905,-0.262 0.905,-1.896l0,-6.402c0,-1.635 -0.104,-1.756 -0.905,-1.895l-0.486,-0.088c-0.14,-0.104 -0.14,-0.504 0,-0.609c0.938,0.035 1.809,0.053 2.644,0.053c0.817,0 1.688,-0.018 2.627,-0.053c0.139,0.105 0.139,0.506 0,0.609l-0.487,0.088c-0.8,0.139 -0.904,0.26 -0.904,1.895l0,6.402Z" style="fill:#231f20;fill-rule:nonzero;"/><path d="M559.323,171.011c0,1.131 0,2.227 0.034,2.801c-0.121,0.209 -0.608,0.4 -1.026,0.4c-0.017,0 -0.591,-0.887 -1.408,-1.896l-4.019,-4.975c-1.009,-1.234 -1.583,-1.965 -1.896,-2.227c-0.087,0.174 -0.087,0.469 -0.087,1.113l0,3.375c0,1.408 0.07,2.713 0.262,3.184c0.156,0.365 0.557,0.486 1.009,0.557l0.486,0.068c0.14,0.139 0.104,0.506 0,0.609c-0.938,-0.035 -1.635,-0.053 -2.331,-0.053c-0.644,0 -1.287,0.018 -1.947,0.053c-0.104,-0.104 -0.14,-0.471 0,-0.609l0.295,-0.051c0.47,-0.088 0.818,-0.209 0.957,-0.574c0.191,-0.471 0.243,-1.775 0.243,-3.184l0,-4.418c0,-0.957 -0.017,-1.236 -0.121,-1.479c-0.14,-0.297 -0.383,-0.506 -0.992,-0.592l-0.486,-0.07c-0.122,-0.139 -0.104,-0.557 0.069,-0.609c0.817,0.035 1.688,0.053 2.4,0.053c0.592,0 1.096,-0.018 1.461,-0.053c0.174,0.783 1.305,2.105 2.87,3.967l1.462,1.723c0.765,0.904 1.27,1.514 1.67,1.912c0.069,-0.174 0.069,-0.469 0.069,-0.781l0,-2.4c0,-1.41 -0.069,-2.715 -0.261,-3.184c-0.157,-0.365 -0.54,-0.488 -1.01,-0.557l-0.469,-0.07c-0.14,-0.139 -0.104,-0.504 0,-0.609c0.938,0.035 1.617,0.053 2.33,0.053c0.645,0 1.271,-0.018 1.948,-0.053c0.104,0.105 0.14,0.471 0,0.609l-0.312,0.053c-0.452,0.068 -0.783,0.209 -0.939,0.574c-0.191,0.469 -0.261,1.773 -0.261,3.184l0,4.156Z" style="fill:#231f20;fill-rule:nonzero;"/><path d="M576.333,171.011c0,1.131 0,2.227 0.034,2.801c-0.121,0.209 -0.608,0.4 -1.026,0.4c-0.017,0 -0.591,-0.887 -1.408,-1.896l-4.019,-4.975c-1.009,-1.234 -1.583,-1.965 -1.896,-2.227c-0.087,0.174 -0.087,0.469 -0.087,1.113l0,3.375c0,1.408 0.07,2.713 0.262,3.184c0.156,0.365 0.557,0.486 1.009,0.557l0.486,0.068c0.14,0.139 0.104,0.506 0,0.609c-0.938,-0.035 -1.635,-0.053 -2.331,-0.053c-0.644,0 -1.287,0.018 -1.947,0.053c-0.104,-0.104 -0.14,-0.471 0,-0.609l0.295,-0.051c0.47,-0.088 0.818,-0.209 0.957,-0.574c0.191,-0.471 0.243,-1.775 0.243,-3.184l0,-4.418c0,-0.957 -0.017,-1.236 -0.121,-1.479c-0.14,-0.297 -0.383,-0.506 -0.992,-0.592l-0.486,-0.07c-0.122,-0.139 -0.104,-0.557 0.069,-0.609c0.817,0.035 1.688,0.053 2.4,0.053c0.592,0 1.096,-0.018 1.461,-0.053c0.174,0.783 1.305,2.105 2.87,3.967l1.462,1.723c0.765,0.904 1.27,1.514 1.67,1.912c0.069,-0.174 0.069,-0.469 0.069,-0.781l0,-2.4c0,-1.41 -0.069,-2.715 -0.261,-3.184c-0.157,-0.365 -0.54,-0.488 -1.01,-0.557l-0.469,-0.07c-0.14,-0.139 -0.104,-0.504 0,-0.609c0.938,0.035 1.617,0.053 2.33,0.053c0.645,0 1.271,-0.018 1.948,-0.053c0.104,0.105 0.14,0.471 0,0.609l-0.312,0.053c-0.452,0.068 -0.783,0.209 -0.939,0.574c-0.191,0.469 -0.261,1.773 -0.261,3.184l0,4.156Z" style="fill:#231f20;fill-rule:nonzero;"/><path d="M595.014,168.175c0,3.793 -2.54,6.072 -6.28,6.072c-3.496,0 -6.035,-2.297 -6.035,-5.932c0,-3.445 2.574,-6.105 6.21,-6.105c3.617,0 6.105,2.434 6.105,5.965Zm-6.245,-5.166c-2.14,0 -3.287,2.002 -3.287,4.906c0,2.121 0.747,5.531 3.583,5.531c2.278,0 3.166,-2.227 3.166,-5.045c-0.001,-2.974 -1.305,-5.392 -3.462,-5.392Z" style="fill:#231f20;fill-rule:nonzero;"/><path d="M607.172,169.653c-0.887,2.105 -1.339,3.48 -1.739,4.453c-0.14,0.088 -0.348,0.141 -0.609,0.141c-0.208,0 -0.365,-0.053 -0.47,-0.141c-0.19,-0.469 -0.486,-1.391 -0.73,-1.982l-2.817,-7.08c-0.661,-1.67 -0.748,-1.703 -1.305,-1.844l-0.696,-0.174c-0.139,-0.191 -0.087,-0.504 0.069,-0.592c0.888,0.018 1.462,0.053 2.366,0.053c0.8,0 1.548,-0.018 2.609,-0.053c0.139,0.105 0.122,0.436 0.018,0.592l-0.522,0.105c-0.312,0.068 -0.435,0.174 -0.435,0.33c0,0.139 0.278,0.869 0.696,1.914l1.53,3.912c0.243,0.645 0.452,1.166 0.574,1.463c0.139,-0.297 0.417,-0.889 0.626,-1.41l0.661,-1.635c0.435,-1.096 1.183,-3.045 1.392,-3.635c0.122,-0.332 0.174,-0.523 0.174,-0.627c0,-0.121 -0.139,-0.191 -0.557,-0.295l-0.557,-0.123c-0.139,-0.139 -0.139,-0.504 0.069,-0.592c0.817,0.035 1.479,0.053 2.14,0.053c0.592,0 1.113,-0.018 1.618,-0.053c0.139,0.07 0.156,0.488 0.034,0.592l-0.452,0.088c-0.486,0.086 -0.782,0.209 -1.009,0.574c-0.383,0.574 -0.817,1.547 -1.409,2.957l-1.269,3.009Z" style="fill:#231f20;fill-rule:nonzero;"/><path d="M616.721,170.036c-0.418,0 -0.47,0.018 -0.574,0.35l-0.679,2.018c-0.104,0.348 -0.122,0.486 -0.122,0.625c0,0.105 0.227,0.209 0.714,0.297l0.521,0.086c0.104,0.123 0.14,0.521 -0.035,0.609c-0.608,-0.035 -1.234,-0.035 -1.965,-0.053c-0.592,0 -0.992,0.053 -1.792,0.053c-0.191,-0.104 -0.174,-0.471 -0.052,-0.609l0.469,-0.051c0.418,-0.053 0.766,-0.191 1.062,-0.871c0.296,-0.695 0.626,-1.531 1.096,-2.783l1.583,-4.244c0.4,-1.096 0.696,-1.705 0.644,-2.209c0.835,-0.191 1.479,-1.043 1.514,-1.043c0.226,0 0.33,0.086 0.4,0.348c0.139,0.504 0.348,1.148 0.782,2.383l2.366,6.818c0.365,1.045 0.521,1.443 1.165,1.549l0.661,0.104c0.104,0.088 0.139,0.506 -0.018,0.609c-0.835,-0.035 -1.774,-0.053 -2.679,-0.053c-0.87,0 -1.548,0.018 -2.349,0.053c-0.191,-0.104 -0.226,-0.471 -0.034,-0.609l0.557,-0.086c0.399,-0.07 0.47,-0.191 0.47,-0.297c0,-0.121 -0.122,-0.539 -0.331,-1.182l-0.47,-1.496c-0.087,-0.279 -0.226,-0.314 -0.835,-0.314l-2.069,0l0,-0.002Zm1.982,-0.922c0.4,0 0.487,-0.051 0.348,-0.504l-0.452,-1.408c-0.243,-0.748 -0.557,-1.688 -0.713,-2.053c-0.139,0.4 -0.487,1.34 -0.748,2.139l-0.435,1.305c-0.157,0.471 -0.069,0.521 0.365,0.521l1.635,0Z" style="fill:#231f20;fill-rule:nonzero;"/><path d="M631.228,163.792c0,-0.418 0,-0.504 -0.417,-0.504l-1.079,0c-1.27,0 -1.635,0.695 -2.156,1.965c-0.209,0.105 -0.54,0.07 -0.645,-0.156c0.366,-1.199 0.453,-2.279 0.574,-2.957c0.07,-0.053 0.157,-0.088 0.244,-0.088c0.087,0 0.174,0.018 0.243,0.07c0.087,0.295 0.14,0.365 1.461,0.365l6.472,0c1.147,0 1.408,-0.018 1.565,-0.383c0.069,-0.035 0.121,-0.053 0.226,-0.053c0.105,0 0.227,0.07 0.261,0.123c-0.174,0.592 -0.295,2 -0.261,2.992c-0.087,0.156 -0.557,0.191 -0.644,0.051c-0.296,-1.113 -0.539,-1.93 -1.844,-1.93l-1.044,0c-0.417,0 -0.47,0.053 -0.47,0.504l0,7.672c0,1.617 0.104,1.756 0.888,1.861l0.695,0.086c0.122,0.105 0.122,0.506 0,0.609c-1.131,-0.035 -2,-0.053 -2.783,-0.053c-0.835,0 -1.739,0.018 -2.957,0.053c-0.139,-0.104 -0.139,-0.504 0,-0.609l0.783,-0.086c0.782,-0.088 0.887,-0.244 0.887,-1.861l0,-7.671l0.001,0Z" style="fill:#231f20;fill-rule:nonzero;"/><path d="M646.481,171.429c0,1.635 0.104,1.756 0.904,1.896l0.487,0.086c0.139,0.105 0.122,0.506 -0.018,0.609c-0.939,-0.035 -1.792,-0.053 -2.609,-0.053c-0.835,0 -1.704,0.018 -2.644,0.053c-0.14,-0.104 -0.14,-0.504 0,-0.609l0.486,-0.086c0.801,-0.141 0.905,-0.262 0.905,-1.896l0,-6.402c0,-1.635 -0.104,-1.756 -0.905,-1.895l-0.486,-0.088c-0.14,-0.104 -0.14,-0.504 0,-0.609c0.939,0.035 1.809,0.053 2.644,0.053c0.817,0 1.688,-0.018 2.627,-0.053c0.139,0.105 0.139,0.506 0,0.609l-0.487,0.088c-0.8,0.139 -0.904,0.26 -0.904,1.895l0,6.402Z" style="fill:#231f20;fill-rule:nonzero;"/><path d="M665.477,168.175c0,3.793 -2.54,6.072 -6.28,6.072c-3.496,0 -6.035,-2.297 -6.035,-5.932c0,-3.445 2.574,-6.105 6.21,-6.105c3.617,0 6.105,2.434 6.105,5.965Zm-6.246,-5.166c-2.14,0 -3.287,2.002 -3.287,4.906c0,2.121 0.747,5.531 3.583,5.531c2.278,0 3.166,-2.227 3.166,-5.045c0,-2.974 -1.304,-5.392 -3.462,-5.392Z" style="fill:#231f20;fill-rule:nonzero;"/><path d="M681.513,171.011c0,1.131 0,2.227 0.034,2.801c-0.121,0.209 -0.608,0.4 -1.026,0.4c-0.017,0 -0.591,-0.887 -1.408,-1.896l-4.019,-4.975c-1.009,-1.234 -1.583,-1.965 -1.896,-2.227c-0.087,0.174 -0.087,0.469 -0.087,1.113l0,3.375c0,1.408 0.07,2.713 0.262,3.184c0.156,0.365 0.557,0.486 1.009,0.557l0.486,0.068c0.14,0.139 0.104,0.506 0,0.609c-0.938,-0.035 -1.635,-0.053 -2.331,-0.053c-0.644,0 -1.287,0.018 -1.947,0.053c-0.104,-0.104 -0.14,-0.471 0,-0.609l0.295,-0.051c0.47,-0.088 0.818,-0.209 0.957,-0.574c0.191,-0.471 0.243,-1.775 0.243,-3.184l0,-4.418c0,-0.957 -0.017,-1.236 -0.121,-1.479c-0.14,-0.297 -0.383,-0.506 -0.992,-0.592l-0.486,-0.07c-0.122,-0.139 -0.104,-0.557 0.069,-0.609c0.817,0.035 1.688,0.053 2.4,0.053c0.592,0 1.096,-0.018 1.461,-0.053c0.174,0.783 1.305,2.105 2.87,3.967l1.462,1.723c0.765,0.904 1.27,1.514 1.67,1.912c0.069,-0.174 0.069,-0.469 0.069,-0.781l0,-2.4c0,-1.41 -0.069,-2.715 -0.261,-3.184c-0.157,-0.365 -0.54,-0.488 -1.01,-0.557l-0.469,-0.07c-0.14,-0.139 -0.104,-0.504 0,-0.609c0.938,0.035 1.617,0.053 2.33,0.053c0.645,0 1.271,-0.018 1.948,-0.053c0.104,0.105 0.14,0.471 0,0.609l-0.312,0.053c-0.452,0.068 -0.783,0.209 -0.939,0.574c-0.191,0.469 -0.261,1.773 -0.261,3.184l0,4.156Z" style="fill:#231f20;fill-rule:nonzero;"/></g></g></svg>